<?xml version="1.0" encoding="utf-8"?>
<!-- Generator: Adobe Illustrator 24.0.0, SVG Export Plug-In . SVG Version: 6.00 Build 0)  -->
<svg version="1.1" id="Layer_1" xmlns="http://www.w3.org/2000/svg" xmlns:xlink="http://www.w3.org/1999/xlink" x="0px" y="0px"
	 viewBox="0 0 500 500" style="enable-background:new 0 0 500 500;" xml:space="preserve">
<g>
	<path d="M265.14,348.81c-56.89-56.91-112.28-112.3-168.02-168.06c0-8.66,0-18.08,0-29.56c46.19,46.16,91.09,91.04,137.26,137.19
		c0-45.93,0-90.39,0-136.05c3.92,0,6.81,0,9.7,0c29.5,0,59.01,0.11,88.51-0.04c15.01-0.08,27.54,5.58,38.47,15.44
		c16.24,14.65,24.9,33.46,29.53,54.39c1.05,4.72,1.47,9.59,2.29,15.19c-10.26,0-19.64,0-29.67,0c-0.83-3.73-1.62-7.66-2.57-11.54
		c-3.02-12.32-7.61-23.88-16.56-33.25c-6.53-6.85-14.29-10.39-24-10.27c-21.29,0.27-42.59,0.08-64.55,0.08c0,17.69,0,34.95,0,53.25
		c18.15,0,36.02,0,54.32,0c0,10.2,0,19.39,0,29.62c-17.92,0-35.8,0-54.72,0C265.14,293.35,265.14,320.48,265.14,348.81z"/>
	<path d="M402.43,264.39c-4.45,29.92-13.99,56.18-39.33,74.11c-11.68,8.26-30.73,12.57-44.16,6.87c0-8.05,0-16.37,0-25.62
		c3.18-0.16,6.35-0.59,9.49-0.43c12.95,0.68,22.62-5.1,30.08-15.12c7.48-10.05,11.45-21.59,13.79-33.77
		c0.35-1.84,0.74-3.68,1.22-6.03C382.86,264.39,391.98,264.39,402.43,264.39z"/>
</g>
</svg>
